<svg viewBox="0 0 296.62 80.3" xmlns="http://www.w3.org/2000/svg"><path d="m0 0h287.89v80.3h-287.89z"/><g fill="#fff"><path d="m50.35 46.15h22.22v6.35h-12.09v3.8h11.61v7.09h-11.61v3.83h12.18v6.57h-22.25z"/><path d="m125.81 46.66h11.1l2.38 10.16 5.54-10.22 5.57 10.06 2.34-10.06h10l-11.29 28.71-6.87-10.8-6.71 10.74z"/><path d="m235 61.46 8.54 12h-12.54l-5.19-7.73h-3.89v7.73h-10.26l-.1-27.71h16.93c5.45 0 10.35 2.67 10.61 8.12a7.94 7.94 0 0 1 -4.1 7.59zm-10-9.06h-3v6.23h3.55a3.38 3.38 0 0 0 3.16-3.25 3 3 0 0 0 -2.72-3z"/><path d="m1.74 41.03h39.14v37.54h-39.14z"/><path d="m83.52 41.03h39.14v37.54h-39.14z"/><path d="m165.31 41.03h39.14v37.54h-39.14z"/><path d="m247.09 41.03h39.14v37.54h-39.14z"/><path d="m42.61 1.73h39.14v37.54h-39.14z"/><path d="m124.37 1.73h39.14v37.54h-39.14z"/><path d="m206.12 1.73h39.14v37.54h-39.14z"/></g><path d="m7.69 73.54.16-27.8 19.15 11.38.29-11.19h9.21l.41 28.68-19.25-11.29v10.22z"/><path d="m97.68 74.11v-20.41l-8.1.67v-7.91h26.36v7.73l-8-.64v20.56z"/><path d="m184.45 74.35c-20.57-.18-20.23-28.53.5-28.37 21.05.18 20.1 28.59-.5 28.37zm.41-19.89c-7.69 0-7.34 11.31.16 11.22 7.31-.09 7.28-11.25-.16-11.22z"/><path d="m253.1 73.48v-27.65h9.78v11.28l7.47-11.28h10.65l-8.4 12.71 10.4 14.94h-12.24l-7.88-11.62v11.62z"/><path d="m225.92 34.46c-20.57-.18-20.22-28.53.51-28.37 21.01.18 20.09 28.59-.51 28.37zm.41-19.89c-7.69 0-7.34 11.32.16 11.22 7.31-.09 7.28-11.25-.16-11.22z"/><path d="m139.16 34.54v-20.41l-8.1.67v-7.91h26.36v7.72l-8-.63v20.56z"/><path d="m44.68 34.54 17.47-28.23 17.63 28.17h-11l-1.88-3.41h-10.29l-1.87 3.47zm14.53-9.19 5 .06-2.54-5z"/><path d="m252.05 33.9.16-27.8 19.11 11.38.29-11.19h9.21l.41 28.71-19.23-11.32v10.22z" fill="#fff"/><path d="m185 34.46c-20.57-.18-20.22-28.53.51-28.37 21.05.18 20.13 28.59-.51 28.37zm.41-19.89c-7.69 0-7.34 11.32.16 11.22 7.35-.09 7.32-11.25-.12-11.22z" fill="#fff"/><path d="m112.24 22.21 8.55 12h-12.5l-5.19-7.73h-3.89v7.73h-10.21l-.14-27.7h16.93c5.44 0 10.35 2.68 10.6 8.12a7.94 7.94 0 0 1 -4.15 7.58zm-10-9.07h-3v6.24h3.54a3.38 3.38 0 0 0 3.16-3.26 3 3 0 0 0 -2.72-3z" fill="#fff"/><path d="m16 20.66c.13 6.21 8.51 6.82 11 2.22l9 2.28c-1.87 5.05-6.58 10.19-15.47 9.55-20.16-1.48-18.29-27.16-1.32-28.49 5.79-.46 13.38.94 16.67 8.78l-8.83 3a5.79 5.79 0 0 0 -11.05 2.66z" fill="#fff"/><path d="m289 76a3.83 3.83 0 1 1 3.84 3.83 3.82 3.82 0 0 1 -3.84-3.83zm6.93 0a3.11 3.11 0 1 0 -3.09 3.11 3.09 3.09 0 0 0 3.06-3.11zm-1.2 2.09h-.94l-.91-1.75h-.88v1.75h-.8v-4.16h2a2.24 2.24 0 0 1 1.12.2 1.22 1.22 0 0 1 .49 1.08c0 .75-.4 1.06-1.13 1.11zm-1.46-2.37c.46 0 .78-.1.78-.62s-.58-.54-1-.54h-1v1.14z" fill="#211915"/></svg>